<svg enable-background="new 0 0 512 512" height="512" viewBox="0 0 512 512" width="512" xmlns="http://www.w3.org/2000/svg"><path d="m58.852 423.328-32.851 61.799.821-336.709c0-67.651 54.613-122.366 122.365-122.366h335.889c-95.469 29.668-194.943 96.702-260.643 173.078-72.474 83.559-113.639 141.047-165.581 224.198" fill="#047863"/><path d="m485.896 26.052s-146.591 68.574-191.35 171.538c-23.815 55.023-29.666 121.235-72.886 162.812-29.667 28.537-71.653 39.215-108.095 57.795-23.816 12.318-68.164 41.576-87.155 67.752h337.12c67.753 0 122.468-54.717 122.468-122.366-.102-.001-.102-337.531-.102-337.531z" fill="#06a261"/></svg>